<?xml version="1.0" encoding="UTF-8"?>
<svg id="Layer_1" xmlns="http://www.w3.org/2000/svg" version="1.1" viewBox="0 0 512 512">
  <!-- Generator: Adobe Illustrator 30.4.0, SVG Export Plug-In . SVG Version: 2.1.4 Build 226)  -->
  <rect x="0" y="0" width="512" height="512" rx="256" ry="256" fill="#875d3b"/>
  <g>
    <path d="M97.78,277.64v-43.28h20.52c7.85,0,13.35,4.45,13.35,10.94,0,4.95-3.59,8.78-8.9,10.08,6,.93,9.83,5.01,9.83,10.51,0,6.92-5.69,11.75-13.91,11.75h-20.9ZM105.14,252.41h12.92c3.71,0,6.24-2.47,6.24-5.93,0-3.21-2.35-5.5-5.69-5.5h-13.48v11.44ZM105.14,270.96h13.91c3.71,0,6-2.66,6-6.12s-2.72-6-6.68-6h-13.23v12.12Z" fill="#f5ebc9"/>
    <path d="M136.17,277.64l17.68-43.28h7.42l17.74,43.28h-7.67l-4.39-10.7h-18.73l-4.39,10.7h-7.67ZM150.88,260.39h13.41l-6.68-16.44-6.74,16.44Z" fill="#f5ebc9"/>
    <path d="M180.3,255.88c0-13.11,8.28-22.44,21.7-22.44,11.25,0,18.98,6.68,20.83,17.62h-7.6c-1.36-6.8-6.37-10.94-13.23-10.94-8.66,0-14.1,6.06-14.1,15.76s5.5,15.95,13.79,15.95c6.74,0,11.13-4.39,11.13-10.57h-13.04v-6.24h14.78c5.56,0,8.59,2.78,8.59,8.04v14.59h-6.55v-13.23h-.12c-.87,8.65-6.55,14.16-15.52,14.16-12.12,0-20.65-8.9-20.65-22.69Z" fill="#f5ebc9"/>
    <path d="M230.99,277.64v-43.28h7.42v43.28h-7.42Z" fill="#f5ebc9"/>
    <path d="M247.38,277.64v-43.28h21.14c8.22,0,13.91,5.01,13.91,12.24,0,5.32-3.77,9.71-9.52,11.19,2.84.56,4.88,2.29,5.93,4.95l5.56,14.9h-7.91l-5.01-13.66c-.62-1.73-2.04-2.66-4.02-2.66h-12.67v16.32h-7.42ZM254.79,254.76h13.35c4.58,0,6.92-3.28,6.92-7.05,0-3.96-2.72-6.68-6.92-6.68h-13.35v13.72Z" fill="#f5ebc9"/>
    <path d="M286.94,277.64l17.68-43.28h7.42l17.74,43.28h-7.67l-4.39-10.7h-18.73l-4.39,10.7h-7.67ZM301.65,260.39h13.41l-6.68-16.44-6.74,16.44Z" fill="#f5ebc9"/>
    <path d="M332.5,264.28h7.6c.68,4.7,5.01,7.67,11.93,7.67,5.63,0,8.59-2.16,8.59-5.81,0-3.4-2.66-4.76-6.86-6.06l-7.05-2.1c-5.07-1.55-12.98-3.77-12.98-12.24,0-7.11,5.87-12.3,15.46-12.3,10.45,0,17.12,5.63,17.68,14.78h-7.54c-.31-4.88-3.89-8.16-10.39-8.16-4.76,0-7.85,1.98-7.85,5.32,0,3.77,3.77,4.7,7.97,6.06l6.55,2.04c6.12,1.92,12.55,4.14,12.55,12.3s-6.24,12.8-16.13,12.8c-11.38,0-18.98-5.69-19.54-14.28Z" fill="#f5ebc9"/>
    <path d="M371.38,277.64l17.68-43.28h7.42l17.74,43.28h-7.67l-4.39-10.7h-18.73l-4.39,10.7h-7.67ZM386.09,260.39h13.41l-6.68-16.44-6.74,16.44Z" fill="#f5ebc9"/>
  </g>
</svg>